<mxfile host="65bd71144e">
    <diagram id="ZN-Y50-iOPjWMrZlISFB" name="Page-1">
        <mxGraphModel dx="588" dy="597" grid="1" gridSize="5" guides="1" tooltips="1" connect="1" arrows="1" fold="1" page="1" pageScale="1" pageWidth="827" pageHeight="1169" background="#ffffff" math="0" shadow="0">
            <root>
                <mxCell id="0"/>
                <mxCell id="1" parent="0"/>
                <mxCell id="2" value="" style="whiteSpace=wrap;html=1;fillColor=#FFFFFF;fontColor=#000000;strokeColor=#000000;fontSize=17;" parent="1" vertex="1">
                    <mxGeometry x="95" y="190" width="105" height="170" as="geometry"/>
                </mxCell>
                <mxCell id="4" value="&lt;p style=&quot;line-height: 1.6&quot;&gt;LCD &lt;br&gt;显示电路&lt;/p&gt;" style="whiteSpace=wrap;html=1;fillColor=#FFFFFF;fontColor=#000000;strokeColor=#000000;fontSize=17;" parent="1" vertex="1">
                    <mxGeometry x="400" y="190" width="90" height="170" as="geometry"/>
                </mxCell>
                <mxCell id="17" value="&lt;span style=&quot;color: rgb(0 , 0 , 0) ; font-family: &amp;#34;helvetica&amp;#34; ; font-size: 17px ; font-style: normal ; font-weight: 400 ; letter-spacing: normal ; text-align: center ; text-indent: 0px ; text-transform: none ; word-spacing: 0px ; display: inline ; float: none&quot;&gt;ESP&lt;/span&gt;" style="text;whiteSpace=wrap;html=1;fontColor=#000000;" parent="1" vertex="1">
                    <mxGeometry x="127.5" y="200" width="40" height="30" as="geometry"/>
                </mxCell>
                <mxCell id="18" value="GRAM" style="rounded=1;whiteSpace=wrap;html=1;fontSize=17;strokeColor=#000000;fillColor=#FFFFFF;arcSize=14;fontColor=#000000;" parent="1" vertex="1">
                    <mxGeometry x="105" y="255" width="65" height="100" as="geometry"/>
                </mxCell>
                <mxCell id="12" value="" style="group;fontColor=#000000;spacing=4;" parent="1" vertex="1" connectable="0">
                    <mxGeometry x="230" y="190" width="130" height="170" as="geometry"/>
                </mxCell>
                <mxCell id="3" value="" style="whiteSpace=wrap;html=1;fillColor=#FFFFFF;fontColor=#000000;strokeColor=#000000;fontSize=17;labelPosition=center;verticalLabelPosition=middle;align=center;verticalAlign=middle;" parent="12" vertex="1">
                    <mxGeometry width="130" height="170" as="geometry"/>
                </mxCell>
                <mxCell id="9" value="&lt;span style=&quot;line-height: 1.6&quot;&gt;屏幕驱动 IC&lt;/span&gt;" style="text;html=1;strokeColor=none;fillColor=none;align=center;verticalAlign=middle;whiteSpace=wrap;rounded=0;fontSize=17;fontColor=#000000;spacing=2;perimeterSpacing=0;" parent="12" vertex="1">
                    <mxGeometry x="26" y="16.19047619047619" width="78" height="48.57142857142857" as="geometry"/>
                </mxCell>
                <mxCell id="19" value="" style="shape=flexArrow;endArrow=classic;html=1;fontSize=17;fontColor=#000000;strokeColor=#000000;width=31.515151515151516;endSize=5.0606060606060606;fillColor=#FFFFFF;labelBackgroundColor=#FFFFFF;exitX=1;exitY=0.75;exitDx=0;exitDy=0;entryX=0;entryY=0.75;entryDx=0;entryDy=0;" parent="1" edge="1" target="4" source="2">
                    <mxGeometry width="50" height="50" relative="1" as="geometry">
                        <mxPoint x="205" y="305" as="sourcePoint"/>
                        <mxPoint x="400" y="314" as="targetPoint"/>
                        <Array as="points"/>
                    </mxGeometry>
                </mxCell>
                <mxCell id="20" value="刷屏数据（显示数据）" style="edgeLabel;html=1;align=center;verticalAlign=middle;resizable=0;points=[];labelBackgroundColor=none;fontColor=#000000;" parent="19" vertex="1" connectable="0">
                    <mxGeometry x="-0.1451" y="1" relative="1" as="geometry">
                        <mxPoint x="14" y="2" as="offset"/>
                    </mxGeometry>
                </mxCell>
                <mxCell id="50" value="RGB" style="edgeLabel;html=1;align=center;verticalAlign=middle;resizable=0;points=[];labelBackgroundColor=none;fontColor=#000000;" vertex="1" connectable="0" parent="19">
                    <mxGeometry x="-0.8145" y="-2" relative="1" as="geometry">
                        <mxPoint x="-33" y="-4" as="offset"/>
                    </mxGeometry>
                </mxCell>
            </root>
        </mxGraphModel>
    </diagram>
</mxfile>